# xmcd
# Track frame offsets:
# 150
# 12417
# 22542
# 35007
# 43717
# 56937
# 69050
# 82675
# 93320
# 104045
# 115295
# 128600
# 143242
# 153315
# 169955
# 182905
# 196720
# 211037
# 229032
#
# Disc length: 3244 seconds
# Revision: 0
# Processed by: cddbd v1.5.1PL0 Copyright (c) Steve Scherf et al.
# Submitted via: VisiTrax 2.9.10.220 - For more info visit www.synapsa.com
#
DISCID=f20caa13
DTITLE=Jodle Birge - Mine Nashville favoritter
DYEAR=2000
DGENRE=Country
TTITLE0=Jodle Birge - Mal en rose
TTITLE1=Jodle Birge - Hvor regnbuen ender
TTITLE2=Jodle Birge - Jeg kaster min lasso
TTITLE3=Jodle Birge - Jeg bygger et skib af drømme
TTITLE4=Jodle Birge - Hjertesorg
TTITLE5=Jodle Birge - Danmark er mit land
TTITLE6=Jodle Birge - Jeg bryder sammen
TTITLE7=Jodle Birge - Charlie's sang
TTITLE8=Jodle Birge - Tiden læger alle sår
TTITLE9=Jodle Birge - Jeg vil vente ved telefonen
TTITLE10=Jodle Birge - Toget går
TTITLE11=Jodle Birge - Fjerne trommer
TTITLE12=Jodle Birge - Hils hjemme
TTITLE13=Jodle Birge - Your best buddies
TTITLE14=Jodle Birge - Down at Disneyland
TTITLE15=Jodle Birge - Stop ved mig på vejen ned
TTITLE16=Jodle Birge - Når jeg dør
TTITLE17=Jodle Birge and Bo Young - If I didn't have you in my world
TTITLE18=Jodle Birge - Vaya Con Dios
EXTD=C&B Music 82805
EXTT0=
EXTT1=
EXTT2=
EXTT3=
EXTT4=
EXTT5=
EXTT6=
EXTT7=
EXTT8=
EXTT9=
EXTT10=
EXTT11=
EXTT12=
EXTT13=
EXTT14=
EXTT15=
EXTT16=
EXTT17=
EXTT18=
PLAYORDER=
